<?xml version="1.0" encoding="UTF-8"?>
<svg id="Layer_1" data-name="Layer 1" xmlns="http://www.w3.org/2000/svg" viewBox="0 0 3337.7 2376.34">
  <defs>
    <style>
      .cls-1 {
        fill: #fff;
      }
    </style>
  </defs>
  <path class="cls-1" d="M2109.66,1352.34v1024h-1024v-1024h1024ZM1595.26,1694.1c17.25,2.03,31.68-8,40.04-22.4,9.51-29.19,23.15-58.99,31.5-88.38,14.69-51.67-46.7-78.47-74.87-38.9-9.53,13.38-25.68,69.29-31.01,87.88-3.33,11.65-6.27,19.41-3.26,31.77,2.58,10.61,9.55,19.64,19.08,24.95l-102.89,303.55c-.61,8.78,10.21,12.44,15.96,6.18l105.45-304.65ZM1745.18,1772.07c16.67,5.42,33.55,3.07,46.81-8.61,19.14-24.86,43.02-48.27,61.31-73.55,30.61-42.3-15.46-87.61-57.66-60.66-20.76,25.47-46.62,52.74-65.02,79.83-7.98,11.75-11.07,24.54-6.63,38.43.97,3.03,7.42,12.77,6.6,14.41l-341.61,429.71c-6.14,12.1,9.17,19.05,16.35,8.36l339.87-427.91ZM1399.28,1801.02l-71.6,283.36c-3.89,14.36,14.08,18.47,18.01,5.03l71.8-282.85c1.4-2.31,6.93-1.78,10.27-2.72,14.15-3.96,21.87-14.37,26.25-27.7,6.56-19.93,15.11-49.7,18.8-70.11,8.84-48.86-59.77-68.05-75.96-16.01-7.54,24.23-11.39,51.62-17.52,76.39-.51,14.08,7.13,28.45,19.94,34.62Z"/>
  <path d="M418.05,706.07l-339.87,427.91c-7.18,10.69-22.48,3.74-16.35-8.36l341.61-429.71c.82-1.64-5.63-11.38-6.6-14.41-4.44-13.88-1.35-26.67,6.63-38.43,18.4-27.09,44.26-54.37,65.02-79.83,42.2-26.95,88.27,18.36,57.66,60.66-18.3,25.28-42.17,48.69-61.31,73.55-13.26,11.68-30.13,14.03-46.81,8.61ZM488.55,574.29c-6.26,1.06-11.14,6.27-15.24,10.74-20.03,21.82-37.42,49.43-56.61,72.26-8.98,17.16,3.56,34.71,22.67,32.65,11.31-1.22,22.21-17.16,29.44-25.5,11.41-13.17,37.59-41.18,45.01-54.89,10.37-19.15-3.43-38.95-25.27-35.26Z"/>
  <path d="M268.12,628.1l-105.45,304.65c-5.76,6.26-16.57,2.59-15.96-6.18l102.89-303.55c-9.52-5.31-16.49-14.34-19.08-24.95-3.01-12.36-.07-20.12,3.26-31.77,5.32-18.59,21.48-74.5,31.01-87.88,28.17-39.57,89.55-12.77,74.87,38.9-8.35,29.39-21.99,59.19-31.5,88.38-8.36,14.4-22.79,24.43-40.04,22.4ZM299.75,478.41c-10.32.4-18.99,8.1-22.6,17.36-7.09,27.57-21.59,56.73-27.83,84.07-6.45,28.32,26.44,40.75,40.5,19.52,2.58-3.9,4.45-10.27,6.18-14.8,9.8-25.67,17.82-52.18,26.71-78.18,3.45-13.49-9.5-28.5-22.98-27.97Z"/>
  <path d="M72.14,735.02c-12.81-6.17-20.46-20.54-19.94-34.62,6.13-24.76,9.99-52.16,17.52-76.39,16.19-52.04,84.8-32.85,75.96,16.01-3.69,20.41-12.24,50.18-18.8,70.11-4.38,13.32-12.1,23.73-26.25,27.7-3.34.94-8.87.41-10.27,2.72L18.55,1023.4c-3.92,13.45-21.9,9.33-18.01-5.03l71.6-283.36ZM106.97,611.22c-7.2.55-14.34,6.3-17.29,12.77-4.29,9.41-17.49,63.88-18.34,74.56-1.83,22.79,26.3,30.5,35.57,11.6,9.62-19.61,11.67-52.64,20.14-73.77,2.94-12.52-6.77-26.19-20.09-25.16Z"/>
  <path class="cls-1" d="M1391.02,1068.16c21.84-3.69,35.63,16.11,25.27,35.26-7.42,13.71-33.6,41.72-45.01,54.89-7.23,8.34-18.13,24.28-29.44,25.5-19.1,2.06-31.64-15.49-22.67-32.65,19.19-22.83,36.59-50.45,56.61-72.26,4.1-4.46,8.98-9.68,15.24-10.74Z"/>
  <path class="cls-1" d="M1457.48,1073.45c13.47-.53,26.42,14.48,22.98,27.97-8.9,26-16.91,52.51-26.71,78.18-1.73,4.53-3.6,10.9-6.18,14.8-14.06,21.22-46.96,8.8-40.5-19.52,6.23-27.34,20.74-56.5,27.83-84.07,3.61-9.26,12.28-16.96,22.6-17.36Z"/>
  <path class="cls-1" d="M1413.77,1129.21c13.32-1.02,23.03,12.64,20.09,25.16-8.47,21.13-10.52,54.16-20.14,73.77-9.28,18.9-37.4,11.19-35.57-11.6.86-10.68,14.05-65.15,18.34-74.56,2.95-6.47,10.09-12.21,17.29-12.77Z"/>
  <path class="cls-1" d="M3337.7,693.08v1024h-1024V693.08h1024ZM2581.09,852.28c-7.75.32-14.45,7.39-14.45,15.13s11.94,19.19,15.68,27.1c23.13,49.01-12.83,80.23-36.26,118.35-24.65,40.11-34.27,78.37-10.1,121.82,16.25,29.21,51.78,53.67,51.47,90.39-.1,11.46-11.38,27.03,2.65,35.32,23.34,13.78,28.15-27.3,27.36-41.35-4.14-73.88-92.95-88.25-56.16-170.97,10.25-23.05,29.48-42.9,41.65-65.24,20.13-36.95,23.92-71.74,2.28-109.22-4.94-8.56-12.89-21.79-24.14-21.32ZM2849.52,1376.76c88.74-88.9,177.5-177.82,266.42-266.56,29.74-33.13,4.83-77.42-19.98-104.95-26.07-28.93-84.59-75.38-122.92-43.94l-401.62,400.6c-27.9,33.2-1.77,82.93,22.49,110.43,25.07,28.41,80.36,63.58,117.7,40.75,47.55-43.55,92.27-90.6,137.91-136.32ZM2644.14,1002c-3.99.22-9.25,3.13-11.75,6.27-26.33,33.13-39.51,76.52-22.15,117.06,5.23,12.22,19.97,29.12,21.14,40.8.67,6.71-1.44,13.88,1.81,20.17,6.94,13.46,27.09,9.43,29.08-5.28,5.09-37.47-27.08-55.14-29.87-86.84-1.37-15.57,3.94-34.03,11.18-47.73,4-7.58,16.24-21.06,16.44-28.33.22-7.79-7.96-16.53-15.88-16.1Z"/>
  <path d="M1887.02,524.49c-45.64,45.73-90.36,92.77-137.91,136.32-37.34,22.83-92.63-12.34-117.7-40.75-24.26-27.5-50.39-77.23-22.49-110.43l401.62-400.6c38.32-31.44,96.84,15.02,122.92,43.94,24.81,27.52,49.72,71.82,19.98,104.95-88.92,88.74-177.68,177.66-266.42,266.56ZM2105.47,262.4l25.47-25.96c17.96-22.58-15.48-59.82-31.95-74.97-14.8-13.6-46.66-40.08-67.13-29.11-3.57,1.91-23.78,21.95-26.32,25.63-.58.84-1.39.99-.99,2.5,45.4,17.06,84.02,56.51,100.91,101.91ZM2052.52,313.35c1.52.41,1.66-.4,2.5-.98,2.43-1.68,24.87-23.94,25.31-25.69-9.6-34.82-34.32-66.65-64.87-85.63-6.5-4.04-32.56-17.95-38.84-15.09-5.94,7.65-17.76,15.43-23.02,22.98-.59.85-1.39.99-.98,2.5,44.75,17.55,84.82,55.75,99.91,101.91ZM1814.75,552.11l212.64-212.51c-9.94-49.71-50.95-88.59-97.77-104.77l-215.77,214.89c46.26,16.94,85.76,55.21,100.9,102.39ZM1766.8,600.07c1.51.41,1.65-.4,2.5-.98,2.09-1.45,20.98-20.14,21.27-21.63-9.42-37.12-35.3-71.24-69.07-89.45-6.13-3.31-30.03-13.89-35.61-11.32-4.63,2.13-16.07,17.52-21,21.47,47.66,15.1,85.73,55.11,101.91,101.91ZM1641.65,525.38c-11.96,1.99-14.67,12.51-13.6,23.11,3.58,35.28,60.74,94.58,98.04,88.3,7.22-1.22,13.12-6.85,13.74-14.25,1.23-14.77-18.66-45.19-28.47-56.45-13.14-15.1-48.79-44.19-69.71-40.7Z"/>
  <path d="M1618.58.01c11.25-.47,19.2,12.76,24.14,21.32,21.64,37.48,17.85,72.27-2.28,109.22-12.18,22.34-31.41,42.19-41.65,65.24-36.79,82.72,52.02,97.09,56.16,170.97.79,14.04-4.02,55.12-27.36,41.35-14.03-8.28-2.75-23.86-2.65-35.32.31-36.72-35.22-61.18-51.47-90.39-24.17-43.45-14.56-81.71,10.1-121.82,23.43-38.12,59.39-69.34,36.26-118.35-3.73-7.91-15.68-19.65-15.68-27.1s6.7-14.8,14.45-15.13Z"/>
  <path d="M1681.64,149.74c7.92-.43,16.1,8.32,15.88,16.1-.2,7.27-12.44,20.75-16.44,28.33-7.23,13.7-12.55,32.16-11.18,47.73,2.78,31.7,34.95,49.37,29.87,86.84-2,14.72-22.14,18.74-29.08,5.28-3.25-6.29-1.14-13.46-1.81-20.17-1.17-11.67-15.91-28.58-21.14-40.8-17.36-40.54-4.18-83.93,22.15-117.06,2.5-3.14,7.76-6.05,11.75-6.27Z"/>
  <path class="cls-1" d="M2341.16,1010.91c-15.14-47.18-54.64-85.45-100.9-102.39l215.77-214.89c46.82,16.18,87.83,55.06,97.77,104.77l-212.64,212.51Z"/>
  <path class="cls-1" d="M2763.84,770.29c-16.89-45.4-55.51-84.85-100.91-101.91-.4-1.52.4-1.66.99-2.5,2.54-3.68,22.75-23.72,26.32-25.63,20.47-10.97,52.32,15.51,67.13,29.11,16.47,15.14,49.91,52.38,31.95,74.97l-25.47,25.96Z"/>
  <path class="cls-1" d="M2228.94,907c20.92-3.49,56.57,25.6,69.71,40.7,9.81,11.27,29.7,41.69,28.47,56.45-.62,7.41-6.51,13.04-13.74,14.25-37.31,6.28-94.46-53.02-98.04-88.3-1.08-10.61,1.64-21.12,13.6-23.11Z"/>
  <path class="cls-1" d="M2668.7,744.58c-15.09-46.16-55.16-84.36-99.91-101.91-.41-1.51.39-1.65.98-2.5,5.26-7.56,17.08-15.33,23.02-22.98,6.28-2.86,32.35,11.05,38.84,15.09,30.56,18.98,55.27,50.81,64.87,85.63-.44,1.75-22.89,24.01-25.31,25.69-.85.59-.99,1.39-2.5.98Z"/>
  <path class="cls-1" d="M2247.38,950.7c-16.18-46.8-54.25-86.81-101.91-101.91,4.93-3.94,16.38-19.34,21-21.47,5.58-2.57,29.48,8.01,35.61,11.32,33.76,18.21,59.64,52.32,69.07,89.45-.29,1.49-19.18,20.18-21.27,21.63-.85.59-.99,1.39-2.5.98Z"/>
</svg>