<svg width="19" height="17" viewBox="0 0 19 17" fill="none" xmlns="http://www.w3.org/2000/svg">
<path d="M8.52213 16.9936C8.37756 16.9936 8.25698 16.9453 8.16037 16.8487C8.06309 16.7521 8.01445 16.6315 8.01445 16.4869C8.01445 16.3424 8.06309 16.2218 8.16037 16.1252C8.25765 16.0286 8.37824 15.9803 8.52213 15.9803H9.95397L9.47669 11.1771C9.06123 11.1169 8.64779 11.071 8.23637 11.0393C7.82496 11.0075 7.41152 10.9916 6.99605 10.9916C6.68935 10.9916 6.38603 11.0014 6.08608 11.021C5.78613 11.0406 5.48281 11.0737 5.17611 11.1203L5.76789 13.4054C5.80978 13.5331 5.79052 13.6567 5.71013 13.7763C5.62907 13.8958 5.51861 13.9766 5.37877 14.0185C5.25109 14.0597 5.13084 14.0411 5.01803 13.9627C4.90521 13.8837 4.82786 13.7807 4.78597 13.6537L4.19419 11.2855C3.67401 11.3963 3.16734 11.5348 2.67419 11.701C2.18036 11.8671 1.68652 12.057 1.19269 12.2705C1.06569 12.3191 0.933956 12.3177 0.797493 12.2664C0.661031 12.2151 0.566116 12.1279 0.512747 12.005C0.459378 11.882 0.457351 11.752 0.506667 11.6148C0.555982 11.4777 0.642453 11.3848 0.76608 11.3362C1.28423 11.12 1.80576 10.9288 2.33067 10.7626C2.85557 10.5964 3.3923 10.4498 3.94085 10.3228L2.61035 5.02816C1.89831 5.06464 1.28524 4.84137 0.771147 4.35835C0.257049 3.87532 0 3.26699 0 2.53333C0 1.83143 0.243538 1.23356 0.730613 0.739733C1.21769 0.246578 1.81218 0 2.51408 0C3.21598 0 3.81047 0.246578 4.29755 0.739733C4.78395 1.23356 5.02715 1.83143 5.02715 2.53333C5.02715 3.03054 4.89947 3.47506 4.64411 3.86688C4.3874 4.2587 4.04388 4.55932 3.61355 4.76875L4.94811 10.1364C5.28724 10.0769 5.62501 10.0354 5.96144 10.0117C6.29922 9.98876 6.64375 9.97728 6.99504 9.97728C7.40375 9.97728 7.80233 9.99214 8.19077 10.0219C8.57922 10.0516 8.97104 10.0965 9.36624 10.1566L9.03995 6.99909C8.44546 6.891 7.95298 6.61099 7.56251 6.15904C7.17204 5.70709 6.9768 5.17408 6.9768 4.56C6.9768 3.8581 7.22 3.26023 7.7064 2.7664C8.1928 2.27257 8.78729 2.02599 9.48987 2.02667C10.1924 2.02734 10.7869 2.27392 11.2733 2.7664C11.7597 3.25888 12.0033 3.85675 12.0039 4.56C12.0039 5.1626 11.8192 5.68581 11.4497 6.12965C11.0801 6.57349 10.6147 6.85959 10.0533 6.98795L10.3907 10.3238C11.0865 10.4515 11.7709 10.6035 12.4437 10.7798C13.1166 10.9562 13.7942 11.1328 14.4765 11.3098L15.43 4.78597C14.9909 4.5806 14.6383 4.27897 14.3721 3.88107C14.1059 3.48316 13.9725 3.03392 13.9718 2.53333C13.9718 1.83143 14.2154 1.23356 14.7025 0.739733C15.1902 0.246578 15.7847 0 16.4859 0C17.1871 0 17.7816 0.246578 18.2694 0.739733C18.7571 1.23289 19.0007 1.83076 19 2.53333C19 3.23253 18.7541 3.82263 18.2623 4.30363C17.7705 4.78462 17.177 5.02411 16.4819 5.02208L15.4847 11.5834C15.907 11.6854 16.3258 11.7705 16.7413 11.8388C17.1567 11.907 17.5823 11.9516 18.0181 11.9725C18.162 11.9806 18.2822 12.033 18.3788 12.1296C18.4754 12.2262 18.5241 12.3468 18.5247 12.4914C18.5254 12.6359 18.4768 12.7575 18.3788 12.8562C18.2809 12.9548 18.1606 13.0001 18.0181 12.9919C17.5709 12.9717 17.124 12.9281 16.6774 12.8612C16.2302 12.795 15.783 12.7086 15.3358 12.6018L15.1828 13.5645C15.1618 13.709 15.0956 13.8215 14.9842 13.9019C14.8727 13.9823 14.745 14.0124 14.6011 13.9921C14.4572 13.9718 14.3451 13.9066 14.2647 13.7965C14.1836 13.6871 14.1536 13.5604 14.1745 13.4165L14.3285 12.3485C13.6908 12.1742 13.0571 11.9979 12.4275 11.8195C11.7979 11.6412 11.1561 11.4882 10.5022 11.3605L10.9724 15.9803H12.5157C12.6602 15.9803 12.7808 16.0286 12.8774 16.1252C12.974 16.2218 13.0223 16.3424 13.0223 16.4869C13.0223 16.6315 12.974 16.7521 12.8774 16.8487C12.7808 16.9453 12.6602 16.9936 12.5157 16.9936H8.52213Z" fill="black"/>
</svg>
