<svg width="15" height="15" viewBox="0 0 15 15" fill="none" xmlns="http://www.w3.org/2000/svg">
<path fill-rule="evenodd" clip-rule="evenodd" d="M7.49994 11.9999C8.6934 11.9999 9.83798 11.5258 10.6819 10.6819C11.5258 9.83798 11.9999 8.6934 11.9999 7.49994C11.9999 6.30647 11.5258 5.16189 10.6819 4.31798C9.83798 3.47408 8.6934 2.99997 7.49994 2.99997C6.30647 2.99997 5.16189 3.47408 4.31798 4.31798C3.47408 5.16189 2.99997 6.30647 2.99997 7.49994C2.99997 8.6934 3.47408 9.83798 4.31798 10.6819C5.16189 11.5258 6.30647 11.9999 7.49994 11.9999ZM7.49994 14.9999C9.48904 14.9999 11.3967 14.2097 12.8032 12.8032C14.2097 11.3967 14.9999 9.48904 14.9999 7.49994C14.9999 5.51083 14.2097 3.60319 12.8032 2.19668C11.3967 0.79017 9.48904 0 7.49994 0C5.51083 0 3.60319 0.79017 2.19668 2.19668C0.79017 3.60319 0 5.51083 0 7.49994C0 9.48904 0.79017 11.3967 2.19668 12.8032C3.60319 14.2097 5.51083 14.9999 7.49994 14.9999Z" fill="black"/>
</svg>
