<svg width="44" height="45" viewBox="0 0 44 45" fill="none" xmlns="http://www.w3.org/2000/svg">
<path fill-rule="evenodd" clip-rule="evenodd" d="M12.2445 7.73593C12.9083 7.86228 13.5071 8.21635 13.9378 8.73705C14.3684 9.25775 14.6038 9.91242 14.6034 10.5881V40.6479C14.6034 41.0327 14.7563 41.4017 15.0283 41.6737C15.3004 41.9458 15.6694 42.0986 16.0542 42.0986H16.1804C16.5426 42.0987 16.8916 41.9632 17.159 41.7189C17.4264 41.4746 17.5927 41.1392 17.6253 40.7785L18.9557 26.1403C18.9557 25.3707 19.2614 24.6327 19.8055 24.0886C20.3497 23.5445 21.0877 23.2388 21.8572 23.2388C22.6267 23.2388 23.3648 23.5445 23.9089 24.0886C24.453 24.6327 24.7587 25.3707 24.7587 26.1403L26.0891 40.7785C26.1217 41.1392 26.288 41.4746 26.5554 41.7189C26.8228 41.9632 27.1719 42.0987 27.534 42.0986H27.6603C28.045 42.0986 28.414 41.9458 28.6861 41.6737C28.9582 41.4017 29.111 41.0327 29.111 40.6479V10.6418C29.1109 9.96634 29.3465 9.31202 29.7771 8.79162C30.2077 8.27122 30.8064 7.91737 31.4699 7.79106C34.0175 7.3065 36.7115 6.6348 39.6725 5.7716C39.8554 5.71825 40.026 5.62941 40.1746 5.51013C40.3232 5.39086 40.4468 5.24349 40.5384 5.07644C40.63 4.90939 40.6878 4.72594 40.7085 4.53655C40.7292 4.34716 40.7124 4.15555 40.6591 3.97265C40.6057 3.78976 40.5169 3.61916 40.3976 3.4706C40.2783 3.32204 40.131 3.19843 39.9639 3.10682C39.7969 3.01522 39.6134 2.95741 39.424 2.9367C39.2346 2.91599 39.043 2.93279 38.8601 2.98614C32.1373 4.94466 26.9784 5.85284 21.863 5.82963C16.7418 5.80642 11.5771 4.85182 4.83543 2.98178C4.65058 2.92666 4.4566 2.90896 4.26482 2.92971C4.07305 2.95046 3.88734 3.00924 3.71856 3.10262C3.54977 3.196 3.4013 3.3221 3.28184 3.47354C3.16237 3.62499 3.07431 3.79874 3.0228 3.98463C2.97129 4.17051 2.95736 4.36481 2.98184 4.55614C3.00631 4.74748 3.0687 4.93201 3.16535 5.09894C3.26199 5.26587 3.39096 5.41186 3.5447 5.52835C3.69844 5.64485 3.87387 5.72952 4.06073 5.7774C7.01012 6.59563 9.69838 7.25137 12.2445 7.73593ZM20.3745 41.8128C20.1199 42.7295 19.5719 43.5375 18.8144 44.1131C18.057 44.6887 17.1318 45.0003 16.1804 45.0002H16.0542C14.8999 45.0002 13.7928 44.5416 12.9766 43.7254C12.1604 42.9092 11.7019 41.8022 11.7019 40.6479V10.5881C9.05279 10.0833 6.28329 9.4043 3.28457 8.57156C2.72237 8.4293 2.19428 8.17611 1.73131 7.82688C1.26834 7.47765 0.879827 7.03942 0.588602 6.53793C0.297376 6.03644 0.109308 5.48181 0.0354462 4.90662C-0.0384156 4.33142 0.00341822 3.74727 0.15849 3.18847C0.313561 2.62967 0.578744 2.1075 0.938458 1.65262C1.29817 1.19775 1.74516 0.819352 2.25317 0.539658C2.76118 0.259963 3.31997 0.0846142 3.8967 0.0239104C4.47343 -0.0367933 5.05648 0.0183726 5.61159 0.186168C12.2416 2.02428 17.1234 2.90635 21.8761 2.92811C26.6143 2.94842 31.4772 2.11568 38.0491 0.200676C38.6004 0.0318729 39.1798 -0.0257132 39.7535 0.0312613C40.3272 0.0882357 40.8839 0.258636 41.3912 0.532564C41.8986 0.806493 42.3464 1.17849 42.7088 1.62695C43.0711 2.07541 43.3407 2.5914 43.502 3.14494C43.6633 3.69848 43.7129 4.27855 43.6481 4.85144C43.5833 5.42434 43.4053 5.97866 43.1245 6.48219C42.8437 6.98572 42.4656 7.42844 42.0122 7.78463C41.5588 8.14082 41.0392 8.40338 40.4835 8.55706C37.4601 9.43912 34.6747 10.1355 32.0125 10.6418V40.6479C32.0125 41.8022 31.554 42.9092 30.7378 43.7254C29.9216 44.5416 28.8145 45.0002 27.6603 45.0002H27.534C26.448 45.0003 25.4011 44.5944 24.599 43.8621C23.7969 43.1298 23.2976 42.1241 23.1992 41.0425L21.8688 26.4043C21.8612 26.3189 21.8573 26.2333 21.8572 26.1475C21.8572 26.2326 21.8533 26.3178 21.8456 26.4029L20.5138 41.041C20.4907 41.302 20.4441 41.5603 20.3745 41.8128Z" fill="black"/>
</svg>
