<svg width="36" height="36" viewBox="0 0 36 36" fill="none" xmlns="http://www.w3.org/2000/svg">
<path d="M27.3395 8.66034H27.3565M9.50939 1.01886H26.4904C31.1796 1.01886 34.981 4.8202 34.981 9.50939V26.4904C34.981 31.1796 31.1796 34.981 26.4904 34.981H9.50939C4.8202 34.981 1.01886 31.1796 1.01886 26.4904V9.50939C1.01886 4.8202 4.8202 1.01886 9.50939 1.01886ZM24.7923 16.9301C25.0019 18.3434 24.7605 19.7867 24.1025 21.0548C23.4445 22.323 22.4034 23.3513 21.1272 23.9937C19.851 24.636 18.4048 24.8596 16.9943 24.6326C15.5837 24.4056 14.2807 23.7397 13.2704 22.7294C12.2602 21.7192 11.5942 20.4161 11.3672 19.0056C11.1403 17.595 11.3638 16.1488 12.0062 14.8726C12.6485 13.5965 13.6769 12.5554 14.945 11.8973C16.2131 11.2393 17.6565 10.9979 19.0697 11.2075C20.5113 11.4213 21.8459 12.093 22.8764 13.1235C23.9068 14.154 24.5786 15.4885 24.7923 16.9301Z" stroke="black" stroke-width="2" stroke-linecap="round" stroke-linejoin="round"/>
</svg>
