<svg width="34" height="37" viewBox="0 0 34 37" fill="none" xmlns="http://www.w3.org/2000/svg">
<path d="M13.4687 7.80384C16.3702 5.34225 20.4363 2.7924 23.7891 0.961513C24.5935 0.521588 26.5525 -0.560428 27.3 0.360709C27.8609 1.05121 27.0067 2.18021 26.5084 2.71267C24.9196 4.414 22.3526 5.94021 20.4947 7.41375C19.5792 8.13984 17.7128 9.61195 19.0696 10.8292C20.1986 11.8415 24.2447 12.3625 25.8179 12.7071C27.3911 13.0516 31.5882 13.7991 32.6275 14.6462C33.2867 15.1829 33.2981 15.9218 32.535 16.366C31.1668 17.1633 27.1519 16.5141 25.4848 16.4002C24.622 16.3418 23.7521 16.3162 22.8908 16.2692C21.9796 16.2179 21.0286 16.0044 20.1274 16.2792C19.4426 16.3219 18.7862 16.7305 18.9443 17.4936C19.1379 18.4332 21.2421 19.8783 22.0052 20.546C23.1186 21.5198 24.2618 22.4979 25.3353 23.513C26.1909 24.3217 28.691 26.7064 28.8917 27.7656C29.0654 28.6825 28.3023 29.0968 27.4879 28.9872C25.9404 28.7793 21.44 24.9353 19.9409 23.822C18.987 23.1129 17.2785 21.7049 16.2535 21.2735C13.6096 20.163 14.397 23.7066 14.6361 25.0691C15.1643 28.0674 15.9858 31.0658 16.2535 34.1068C16.3375 35.0578 16.4642 37.2902 14.9052 36.9684C13.8759 36.7549 13.0928 34.1452 12.8337 33.2284C12.1261 30.7269 11.7118 28.123 10.9089 25.6486C10.0233 22.9222 8.73915 21.2422 6.85986 24.5922C5.4632 27.0808 4.7727 29.9339 3.69211 32.5635C3.25646 33.6199 2.13458 36.1085 1.03263 36.5015C-0.0693156 36.8944 -0.0436901 35.623 0.0303425 34.924C0.176984 33.5444 0.542877 31.9243 0.83616 30.5532C2.69837 21.8458 6.60217 13.6282 13.4701 7.80242L13.4687 7.80384Z" fill="#FEB656"/>
</svg>
