<svg width="31" height="34" viewBox="0 0 31 34" fill="none" xmlns="http://www.w3.org/2000/svg">
<path d="M30.1393 0.0360541C30.4878 0.119216 30.7975 0.684141 30.8706 1.01105C30.872 1.58171 30.872 2.15094 30.8706 2.71873C30.7516 3.78693 30.472 4.89814 30.2612 5.95056C29.4239 8.87412 28.7858 11.9067 27.6072 14.7284C26.1662 18.1753 23.7216 21.1519 20.9643 23.6324C20.8855 23.7041 20.8138 23.7557 20.8109 23.8762C17.4314 26.8413 13.6963 29.4595 9.79487 31.7292C8.67506 32.3802 5.83466 34.0477 4.62739 33.999C4.05673 33.976 3.4918 33.6104 3.4961 32.9895C3.5004 32.4232 4.48544 31.4468 4.89838 31.0697C7.42907 28.7641 10.7312 27.0363 13.1285 24.6677C13.5931 24.2088 14.4648 23.2783 13.6734 22.689C12.9091 22.1212 9.82498 22.5427 8.76826 22.5929C7.10216 22.6732 5.44036 22.7549 3.76853 22.775C3.66529 22.775 3.49754 22.7363 3.43445 22.8367C3.34555 22.8983 3.22511 22.8711 3.12904 22.8367C2.98709 22.8338 2.84371 22.8352 2.70176 22.8367C2.50246 22.8897 2.29169 22.884 2.09239 22.8367C2.07232 22.8381 2.05081 22.8338 2.03074 22.8367C1.06864 22.7893 -0.454074 22.3764 0.129491 21.0888C0.605519 20.0378 3.27243 19.7683 4.32342 19.6134C6.94157 19.2277 9.84076 19.0786 12.3958 18.4176C13.0425 18.2499 14.2153 17.8799 14.0992 17.0197C14.0003 16.2927 12.1134 15.4496 11.4825 15.1213C9.53822 14.109 7.50219 13.2444 5.56654 12.2278C5.03602 11.9497 4.40514 11.6156 3.90187 11.3016C3.22511 10.8786 2.18129 10.1158 2.56699 9.19817C3.01577 8.13284 4.65893 8.68199 5.47764 8.93291C8.6808 9.91651 11.8553 11.5023 15.0785 12.3497C16.2915 12.668 17.645 12.9003 17.45 11.1066C17.3482 10.1646 16.0234 7.93354 15.5158 7.00442C14.6957 5.50034 12.5564 2.39039 12.76 0.734324C12.846 0.036054 13.4855 -0.0585782 14.0691 0.099142C15.3825 0.45473 16.9783 2.95101 17.787 4.06366C18.8853 5.57347 21.4862 9.77886 23.0936 10.4011C24.655 11.0062 25.3375 9.5896 25.8608 8.40813C26.7971 6.29755 27.1771 3.99053 28.0015 1.89142C28.3256 1.06697 29.0511 -0.223467 30.1365 0.0331864L30.1393 0.0360541Z" fill="#FEB656"/>
</svg>
