<svg width="52" height="45" viewBox="0 0 52 45" fill="none" xmlns="http://www.w3.org/2000/svg">
<g clip-path="url(#clip0_34_300)">
<path d="M31.9612 15.8246C34.8606 13.3648 38.9238 10.8168 42.2743 8.9872C43.0781 8.54758 45.0357 7.46634 45.7826 8.38682C46.3432 9.07682 45.4895 10.205 44.9916 10.7371C43.4039 12.4372 40.8388 13.9623 38.9822 15.4348C38.0674 16.1604 36.2022 17.6315 37.558 18.8479C38.6862 19.8594 42.7295 20.3801 44.3016 20.7244C45.8737 21.0687 50.0678 21.8156 51.1063 22.6621C51.765 23.1985 51.7764 23.9368 51.0138 24.3807C49.6466 25.1774 45.6347 24.5287 43.9687 24.4149C43.1065 24.3565 42.2373 24.3309 41.3765 24.284C40.466 24.2328 39.5157 24.0193 38.6151 24.2939C37.9308 24.3366 37.2749 24.7449 37.4328 25.5075C37.6263 26.4465 39.7291 27.8905 40.4916 28.5577C41.6042 29.5309 42.7466 30.5082 43.8193 31.5226C44.6743 32.3307 47.1726 34.7137 47.3732 35.7722C47.5468 36.6884 46.7842 37.1024 45.9704 36.9929C44.4239 36.7852 39.9268 32.9439 38.4287 31.8313C37.4755 31.1228 35.7683 29.7158 34.744 29.2847C32.102 28.175 32.8888 31.7161 33.1278 33.0776C33.6556 36.0738 34.4765 39.07 34.744 42.1089C34.8279 43.0592 34.9545 45.29 33.3967 44.9685C32.3681 44.7551 31.5856 42.1473 31.3267 41.2311C30.6196 38.7314 30.2056 36.1293 29.4032 33.6567C28.5183 30.9322 27.235 29.2534 25.357 32.601C23.9614 35.0879 23.2714 37.939 22.1916 40.5667C21.7562 41.6223 20.6351 44.1092 19.534 44.5018C18.4328 44.8945 18.4584 43.624 18.5324 42.9255C18.6789 41.5469 19.0446 39.9279 19.3376 38.5578C21.1985 29.8566 25.0995 21.6449 31.9626 15.8232L31.9612 15.8246Z" fill="#FEB656"/>
<path d="M29.9054 0.0357743C30.2511 0.11829 30.5584 0.67883 30.631 1.0032C30.6324 1.56943 30.6324 2.13424 30.631 2.69763C30.5129 3.75753 30.2355 4.86012 30.0263 5.90437C29.1955 8.80524 28.5624 11.8142 27.3929 14.6141C25.9631 18.0342 23.5374 20.9877 20.8016 23.449C20.7234 23.5201 20.6522 23.5713 20.6494 23.6909C17.2961 26.633 13.59 29.2308 9.71884 31.4829C8.60772 32.1288 5.78937 33.7834 4.59147 33.735C4.02524 33.7123 3.4647 33.3495 3.46896 32.7335C3.47323 32.1715 4.45062 31.2027 4.86036 30.8285C7.3714 28.5408 10.6479 26.8265 13.0266 24.4762C13.4876 24.0209 14.3525 23.0976 13.5672 22.5129C12.8089 21.9495 9.74872 22.3677 8.7002 22.4175C7.04703 22.4972 5.39813 22.5783 3.73928 22.5982C3.63684 22.5982 3.47039 22.5598 3.40779 22.6594C3.31958 22.7206 3.20008 22.6935 3.10475 22.6594C2.96391 22.6566 2.82164 22.658 2.68079 22.6594C2.48304 22.712 2.2739 22.7064 2.07615 22.6594C2.05623 22.6608 2.03489 22.6566 2.01497 22.6594C1.06035 22.6125 -0.450549 22.2027 0.128486 20.9251C0.600819 19.8823 3.24702 19.6148 4.28986 19.4612C6.88769 19.0785 9.76437 18.9305 12.2996 18.2747C12.9412 18.1082 14.105 17.7412 13.9898 16.8875C13.8916 16.1662 12.0193 15.3297 11.3934 15.0039C9.46418 13.9995 7.44396 13.1416 5.52333 12.1329C4.99693 11.8569 4.37095 11.5254 3.87159 11.2139C3.20008 10.7942 2.16436 10.0373 2.54706 9.12677C2.99236 8.06971 4.62277 8.6146 5.43512 8.86357C8.61341 9.83954 11.7633 11.413 14.9615 12.2538C16.1651 12.5697 17.5081 12.8002 17.3146 11.0204C17.2136 10.0857 15.899 7.87195 15.3954 6.95005C14.5816 5.45765 12.4589 2.37183 12.661 0.728624C12.7463 0.0357742 13.3808 -0.0581235 13.9599 0.0983725C15.2631 0.4512 16.8465 2.9281 17.6489 4.03211C18.7387 5.53021 21.3195 9.70296 22.9143 10.3204C24.4636 10.9208 25.1408 9.51516 25.6601 8.34287C26.5891 6.24866 26.9661 3.95956 27.7842 1.87674C28.1057 1.05869 28.8256 -0.221733 29.9026 0.0329288L29.9054 0.0357743Z" fill="#FEB656"/>
</g>
<defs>
<clipPath id="clip0_34_300">
<rect width="52" height="45" fill="white"/>
</clipPath>
</defs>
</svg>
