<?xml version="1.0" encoding="UTF-8"?><svg id="Layer_2" xmlns="http://www.w3.org/2000/svg" viewBox="0 0 607.53 668.15"><g id="Layer_1-2"><path d="M327.55,524.49c-45.64,45.73-90.36,92.77-137.91,136.32-37.34,22.83-92.63-12.34-117.7-40.75-24.26-27.5-50.39-77.23-22.49-110.43L451.07,109.04c38.32-31.44,96.84,15.02,122.92,43.94,24.81,27.52,49.72,71.82,19.98,104.95-88.92,88.74-177.68,177.66-266.42,266.56ZM546,262.4l25.47-25.96c17.96-22.58-15.48-59.82-31.95-74.97-14.8-13.6-46.66-40.08-67.13-29.11-3.57,1.91-23.78,21.95-26.32,25.63-.58.84-1.39.99-.99,2.5,45.4,17.06,84.02,56.51,100.91,101.91ZM493.05,313.35c1.52.41,1.66-.4,2.5-.98,2.43-1.68,24.87-23.94,25.31-25.69-9.6-34.82-34.32-66.65-64.87-85.63-6.5-4.04-32.56-17.95-38.84-15.09-5.94,7.65-17.76,15.43-23.02,22.98-.59.85-1.39.99-.98,2.5,44.75,17.55,84.82,55.75,99.91,101.91ZM255.28,552.11l212.64-212.51c-9.94-49.71-50.95-88.59-97.77-104.77l-215.77,214.89c46.26,16.94,85.76,55.21,100.9,102.39ZM207.33,600.07c1.51.41,1.65-.4,2.5-.98,2.09-1.45,20.98-20.14,21.27-21.63-9.42-37.12-35.3-71.24-69.07-89.45-6.13-3.31-30.03-13.89-35.61-11.32-4.63,2.13-16.07,17.52-21,21.47,47.66,15.1,85.73,55.11,101.91,101.91ZM82.18,525.38c-11.96,1.99-14.67,12.51-13.6,23.11,3.58,35.28,60.74,94.58,98.04,88.3,7.22-1.22,13.12-6.85,13.74-14.25,1.23-14.77-18.66-45.19-28.47-56.45-13.14-15.1-48.79-44.19-69.71-40.7Z"/><path d="M59.11.01c11.25-.47,19.2,12.76,24.14,21.32,21.64,37.48,17.85,72.27-2.28,109.22-12.18,22.34-31.41,42.19-41.65,65.24-36.79,82.72,52.02,97.09,56.16,170.97.79,14.04-4.02,55.12-27.36,41.35-14.03-8.28-2.75-23.86-2.65-35.32.31-36.72-35.22-61.18-51.47-90.39-24.17-43.45-14.56-81.71,10.1-121.82,23.43-38.12,59.39-69.34,36.26-118.35-3.73-7.91-15.68-19.65-15.68-27.1S51.36.34,59.11.01Z"/><path d="M122.17,149.74c7.92-.43,16.1,8.32,15.88,16.1-.2,7.27-12.44,20.75-16.44,28.33-7.23,13.7-12.55,32.16-11.18,47.73,2.78,31.7,34.95,49.37,29.87,86.84-2,14.72-22.14,18.74-29.08,5.28-3.25-6.29-1.14-13.46-1.81-20.17-1.17-11.67-15.91-28.58-21.14-40.8-17.36-40.54-4.18-83.93,22.15-117.06,2.5-3.14,7.76-6.05,11.75-6.27Z"/></g></svg>