<?xml version="1.0" encoding="UTF-8"?><svg id="Layer_2" xmlns="http://www.w3.org/2000/svg" viewBox="0 0 711.22 530.38"><g id="Layer_1-2"><path d="M346.54,230.08c3.29,3.11,2.38,10.2-2.04,11.93l-68.7,19.28c-6.87,9.07,4.64,15.18,13.36,13.35l103.16-19.87c7.27.14,10.97,9.87,4.18,13.22l-73.7,15.77,56.5,6.99c42.16,1.75,84.49-2.12,117.96-29.99,19.16-15.95,28.57-35.47,43.13-54.82,37.82-50.27,80.75-97.06,117.98-147.87,3.06-2.43,5.1-3.85,8.77-1.95,8.57,4.44.55,12.91-2.95,17.75-34.1,47.08-73.99,90.4-109.37,136.5-16.38,21.35-27.68,44.54-49.01,61.93-51.71,42.15-120.61,35.27-182.4,26.59-48.92,14.46-102.4,22.16-150.83,37.12-9.33,2.88-24.97,9.83-12.83,21.24s38.79,2.99,53.24.14c48.02-9.46,95.75-20.97,143.57-31.4,6.29-1.88,16.29.68,13.83,8.77-.98,3.21-10.13,7.72-13.54,9.5-9.17,4.81-43.01,18.54-47.51,25.47-6.83,10.52,5.72,17.87,14.97,18.03,20.68.34,48.91-13,70.27-13.79,35.21-1.31,67.24,2.38,100.26-14.71,35.45-18.35,40.46-49.74,66.43-74.5,18.11-17.26,40.35-33.85,59.54-50.41,17.35-14.97,36.6-35.27,54.49-48.46,9.3-6.86,17.82-.1,11.01,9.01-35.9,36.27-80.85,66.55-117.05,101.85-15.13,14.76-23.02,35.2-36.96,50.99-28.2,31.95-70.88,40.25-111.97,40.99-7.55.14-16.22-1.42-23.01-1.03-26.84,1.52-89.78,32.84-102.58-4.45-3.43-10-.69-18.94,7.04-26.03l10.01-6.47-122.62,25.84c-17.01,1.79-39.88-.99-45.87-19.87-6.47-20.38,10.29-30.17,27.07-34.89,43.25-12.16,90.73-19.19,133.25-32.77,1.68-.54,2.64.43,2.18-2.26-4.77-.9-9.04,1.59-13.5,1.98-17.99,1.6-30.05-4.88-34.03-22.99l-117.98,28.98c-32.98,4.85-53.28-37.32-18.01-51.96,83.56-24.7,168.04-46.46,251.52-71.41,40.79-12.19,61.11-14.6,86.23-51.72,25.22-37.27,47.33-78.2,71.76-116.13,7.02-8.49,17.86-.09,11.83,8.83-24.25,36.68-45.23,75.62-69.8,112.08-19.84,29.45-32.04,40.32-66.25,51.69-87.54,29.1-180.56,48.86-268.76,76.16-8.02,2.48-21.84,5.14-21.06,15.97.68,9.45,12.24,13.81,20.44,12.37,67-16.38,134.05-32.64,200.36-51.59,2.22-.45,6.33-.55,8,1.03Z"/><path d="M4.51,390.87c4.3-1.25,26.91-.56,32.83-.25,55.94,2.88,78.52,20.33,124.79,44.17,66.09,34.05,100.89,11.83,165.66-2.68,68.58-15.36,139.28-12.82,207.22,4.8,39.75,10.31,77.98,29.12,119.3,32.67,17.1,1.47,33.89-.11,50.97-1.96,15.17,10.84-2.36,14.75-11.99,15.95-56.6,7.05-98.58-14.9-150.5-29.46-60.55-16.98-124.79-23.49-187.21-13.2-72.68,11.99-117.56,46.64-192.84,10.24-36.7-17.75-57.52-36.14-100.75-43.21-18.67-3.05-36.18-1.31-53.71-3.29-10.8-1.22-9.93-12-3.79-13.78Z"/><path d="M398.59,477.87c65.32-2.74,105.46,8.99,165.43,29.95,8.73,3.05,20.44,5.25,28.33,8.66,4.33,1.87,5.27,4.77,4.22,9.34-1.49,6.5-8.21,4.48-12.99,3.41-19.26-4.32-40.91-14.69-60.28-20.7-63.94-19.85-124.21-22.2-189.73-7.68-31.21,6.92-62.99,19.32-95.25,20.73-7.34.32-26.3,2.61-25.64-8.54.54-9,16.24-5.06,22.64-5.45,35.73-2.18,69.48-15.73,104.27-22.7,19.42-3.9,39.16-6.18,58.98-7.01Z"/><path d="M351.53,59.16c5.37-1.08,7.68,1.88,8.99,6.59,5.21,18.78,4.42,43.36,9.31,62.71.25,9.83-11.7,11.28-14.76-2.33-3.11-13.8-7.87-43.86-8.32-57.63-.14-4.26-.37-8.31,4.78-9.35Z"/><path d="M413.54,80.12c6.02-1.07,8.81,4.77,8.04,10.08-.71,4.9-10.76,36.79-13.02,40.98-3.96,7.33-14.17,2.96-13.57-3.51l13.3-42.72c.78-2.16,2.96-4.42,5.25-4.83Z"/><path d="M299.52,101.15c3.84-.86,4.75-.14,7.32,2.26,3.38,3.15,21.87,28.09,23.8,32.17,3.54,7.49-4.18,14.53-11.86,6.85-3.29-3.29-22.68-29.26-23.53-32.47-1.03-3.89-.03-7.85,4.27-8.81Z"/></g></svg>