<svg width="58" height="71" viewBox="0 0 58 71" fill="none" xmlns="http://www.w3.org/2000/svg">
<path d="M32.1515 52.2454L45.8526 45.9157C47.0609 45.4982 48.3641 45.4389 49.6054 45.7449C50.8466 46.0509 51.973 46.7091 52.8488 47.6404L55.0926 49.9881C55.8964 50.8254 55.7089 52.2387 54.7142 52.8147L28.4106 68.0898C27.6336 68.5452 26.7711 68.8358 25.8769 68.9436C24.9827 69.0513 24.0759 68.9739 23.2129 68.7161L2.00996 62.383M28.8092 35.5001C28.8092 35.5001 35.8422 28.0015 35.8422 18.7548C35.8422 9.50799 28.8092 2.00944 28.8092 2.00944C28.8092 2.00944 21.7761 9.50799 21.7761 18.7548C21.7761 28.0015 28.8092 35.5001 28.8092 35.5001ZM28.8092 35.5001C28.8092 35.5001 39.0808 35.2723 45.5545 28.668C52.0282 22.0603 52.2526 11.5777 52.2526 11.5777C52.2526 11.5777 47.9993 11.6715 43.2436 13.5001M28.8092 35.5001C28.8092 35.5001 18.5376 35.2723 12.0639 28.668C5.59011 22.0603 5.36572 11.5777 5.36572 11.5777C5.36572 11.5777 9.61903 11.6715 14.3747 13.5001" stroke="black" stroke-width="4" stroke-linecap="round" stroke-linejoin="round"/>
</svg>
