<svg xmlns="http://www.w3.org/2000/svg" viewBox="0 0 24 24" width="24" height="24">
  <path fill="#D32323" d="M21.111 18.226c-.141.969-2.119 3.483-3.029 3.847-1.123.438-1.529.199-1.761-.27-.13-.255-.931-2.329-1.647-4.388-.305-.874-.453-1.341.195-1.614.645-.232 1.282-.334 3.151.101.542.12.94.199 1.186.585.205.323.241.748-.095 1.739zm-3.845-3.123c-.057-.521-.406-.522-.818-.464-.392.035-2.085.597-2.326.655-.404.086-.527.253-.519.621 0 .333.148 1.103.268 1.291.193.302.566.44.96.348.277-.073 2.039-.673 2.267-.824.275-.179.467-.416.414-1.025-.006-.816-.068-.256-.246-.602zm-5.274-2.152c-.129-.341-1.106-.705-1.917-.756-.259-.015-.445.16-.489.394-.079.425 0 .950.056 1.215.113.545.539.733.907.394.42-.384 1.469-1.098 1.443-1.247zm-.26 3.372c-.142-.016-.235.135-.271.269-.121.535-.193 1.62-.106 1.926.103.313.201.371.602.184.538-.222 1.106-.541 1.173-1.021.049-.358-.208-.717-.443-.873-.207-.134-.538-.445-.955-.485zm-3.945-8.732c-.321-.207-.429-.61-.397-1.025.028-.404.311-1.085.562-1.364.439-.462.562-.505 1.082-.351.238.071 2.316 1.058 2.571 1.177.355.163.587.32.525.742-.067.455-.322.749-.648.881-.129.049-2.425.805-2.775.872-.498.089-.702-.021-.92-.158-.23-.15-.104-.121 0-.774z"/>
</svg> 